<svg xmlns="http://www.w3.org/2000/svg" viewBox="0 0 785 785"><defs><style>.cls-1{fill:#dae5e8;}.cls-2{fill:#5a7da3;}.cls-3{fill:#fff;}.cls-4{fill:#d3d3d3;}</style></defs><title>Asset 5</title><g id="Layer_2" data-name="Layer 2"><g id="Layer_1-2" data-name="Layer 1"><rect class="cls-1" width="785" height="785"/><path class="cls-2" d="M514,234.19l.14-.16s57.44-167-120.51-167S269.71,238.78,269.71,238.78h0a10.27,10.27,0,0,1,6.11-4.43c5.69-1.24,12.11,3.67,17.69,12.45-.05-59.24,20-90.13,20-90.13,95.86,46.53,154.79,26.68,164.68,21.45,9.95,16.8,16.37,55.85,18.43,69.91C502,239,508.32,233.69,514,234.19Z"/><path class="cls-2" d="M742.85,784.92s-19.31-113.41-28.61-167.66l0,0-9.76-56.33a73.44,73.44,0,0,0-46.2-56l-144.56-55c-23.92,51.69-71.36,86.91-126,86.91-53.42,0-100-33.67-124.35-83.5L127.85,504.86a73.38,73.38,0,0,0-46.2,56l-10,57.64,0,0C62.29,673.3,43.29,784.92,43.29,784.92H742.85Z"/><path class="cls-3" d="M290.42,443l-27,10.27c24.39,49.83,70.93,83.5,124.35,83.5,54.6,0,102-35.22,126-86.91l-18-6.86a32.63,32.63,0,0,1-21-30.48V353.28a188.82,188.82,0,0,0,13.79-30.77,10.55,10.55,0,0,0,6.39,4.85c10.6,2.3,23.71-16.66,29.28-42.34s1.49-48.38-9.11-50.67c-5.14-1.12-10.87,2.77-16,10l-.13.18c-.33.47-.66.95-1,1.44-.07.11-.14.2-.2.31-.38.57-.75,1.15-1.11,1.76-2.06-14.06-8.48-53.11-18.43-69.91-9.89,5.23-68.82,25.08-164.68-21.45,0,0-20,30.89-20,90.13h0l-.82-1.25a1,1,0,0,1-.11-.17c-.27-.38-.53-.76-.8-1.13l-.15-.2c-.26-.37-.53-.72-.79-1.06l-.15-.2c-.27-.34-.54-.68-.81-1a2.09,2.09,0,0,1-.14-.17q-.42-.5-.84-1l-.11-.12c-.29-.32-.58-.63-.87-.92l-.07-.07c-.31-.31-.61-.61-.92-.89h0c-3.73-3.44-7.55-5.06-11.1-4.29-10.6,2.29-14.68,25-9.11,50.67s18.67,44.64,29.27,42.34a8.85,8.85,0,0,0,3.86-1.95,190.14,190.14,0,0,0,11.58,25.77v61.31A32.6,32.6,0,0,1,290.42,443Z"/><path class="cls-4" d="M393.65,410.46c-33,0-62.44-23-82.2-59.24h0c45.71,170,163.28,61.27,163.28,61.27v-59.2h0C455,388.33,426,410.46,393.65,410.46Z"/></g></g></svg>