<?xml version="1.0" encoding="utf-8"?>
<!-- Generator: Adobe Illustrator 24.0.2, SVG Export Plug-In . SVG Version: 6.00 Build 0)  -->
<svg version="1.1" id="Layer_1" xmlns="http://www.w3.org/2000/svg" xmlns:xlink="http://www.w3.org/1999/xlink" x="0px" y="0px"
	 viewBox="0 0 250.8 250.8" style="enable-background:new 0 0 250.8 250.8;" xml:space="preserve">
<style type="text/css">
	.st0{fill:#606060;}
	.st1{fill:#1F1F1F;}
	.st2{fill:#527FAF;}
	.st3{fill:#F2F2F2;}
	.st4{fill:#BABABA;}
</style>
<title>Asset 6</title>
<g id="Layer_2_1_">
	<g id="Layer_1-2">
		<rect class="st0" width="250.8" height="250.8"/>
		<path class="st1" d="M164.2,74.8L164.2,74.8c0,0,18.4-53.3-38.5-53.3S86.2,76.3,86.2,76.3l0,0c0.5-0.7,1.2-1.2,2-1.4
			c1.8-0.4,3.9,1.2,5.7,4c0-18.9,6.4-28.8,6.4-28.8c30.6,14.9,49.4,8.5,52.6,6.8c3.2,5.4,5.2,17.8,5.9,22.3
			C160.4,76.3,162.4,74.7,164.2,74.8z"/>
		<path class="st2" d="M237.3,250.7c0,0-6.2-36.2-9.1-53.6l0,0l-3.1-18c-1.4-8.2-7-15-14.8-17.9l-46.2-17.6
			c-7.6,16.5-22.8,27.8-40.2,27.8c-17.1,0-31.9-10.8-39.7-26.7l-43.3,16.5c-7.7,3-13.3,9.8-14.8,17.9l-3.2,18.4l0,0
			c-3,17.5-9.1,53.1-9.1,53.1L237.3,250.7L237.3,250.7z"/>
		<path class="st3" d="M92.8,141.5l-8.6,3.3c7.8,15.9,22.7,26.7,39.7,26.7c17.4,0,32.6-11.3,40.2-27.8l-5.8-2.2
			c-4-1.5-6.7-5.4-6.7-9.7v-18.9c1.7-3.1,3.2-6.4,4.4-9.8c0.4,0.8,1.2,1.3,2.1,1.6c3.4,0.7,7.6-5.3,9.4-13.5s0.5-15.5-2.9-16.2
			c-1.6-0.3-3.5,0.9-5.1,3.2v0.1c-0.1,0.2-0.2,0.3-0.3,0.5l-0.1,0.1l-0.4,0.6c-0.6-4.5-2.7-17-5.9-22.3c-3.1,1.7-22,8-52.6-6.8
			c0,0-6.4,9.9-6.4,28.8l0,0l-0.3-0.4v-0.1L93.2,78v-0.1c-0.1-0.1-0.2-0.2-0.3-0.3v-0.1l-0.3-0.3l0,0l-0.3-0.3l0,0
			c-0.1-0.1-0.2-0.2-0.3-0.3l0,0l-0.3-0.3l0,0c-0.9-1-2.2-1.5-3.6-1.4c-3.4,0.7-4.7,8-2.9,16.2s6,14.3,9.3,13.5
			c0.5-0.1,0.9-0.3,1.2-0.6c1,2.8,2.3,5.6,3.7,8.2v19.6C99.6,136.2,96.9,140,92.8,141.5z"/>
		<path class="st4" d="M125.8,131.1c-10.5,0-20-7.3-26.3-18.9l0,0c14.6,54.3,52.2,19.6,52.2,19.6v-18.9l0,0
			C145.3,124.1,136.1,131.1,125.8,131.1z"/>
	</g>
</g>
</svg>
