<?xml version="1.0" encoding="UTF-8" standalone="no"?>
<svg
   id="Layer_2"
   data-name="Layer 2"
   viewBox="0 0 138.2 135"
   version="1.1"
   sodipodi:docname="github.svg"
   inkscape:version="1.3.1 (9b9bdc1480, 2023-11-25, custom)"
   xmlns:inkscape="http://www.inkscape.org/namespaces/inkscape"
   xmlns:sodipodi="http://sodipodi.sourceforge.net/DTD/sodipodi-0.dtd"
   xmlns="http://www.w3.org/2000/svg"
   xmlns:svg="http://www.w3.org/2000/svg">
  <sodipodi:namedview
     id="namedview1"
     pagecolor="#505050"
     bordercolor="#eeeeee"
     borderopacity="1"
     inkscape:showpageshadow="0"
     inkscape:pageopacity="0"
     inkscape:pagecheckerboard="0"
     inkscape:deskcolor="#505050"
     inkscape:zoom="6.0444444"
     inkscape:cx="69.071691"
     inkscape:cy="67.5"
     inkscape:window-width="1850"
     inkscape:window-height="1016"
     inkscape:window-x="0"
     inkscape:window-y="0"
     inkscape:window-maximized="1"
     inkscape:current-layer="Graphic_Elements" />
  <defs
     id="defs1">
    <style
       id="style1">
      .cls-1 {
        fill: #363636;
      }
    </style>
  </defs>
  <g
     id="Graphic_Elements"
     data-name="Graphic Elements">
    <ellipse
       style="fill:#1b1b1b;fill-opacity:1"
       id="path2"
       cx="69.096893"
       cy="67.724251"
       rx="69.075569"
       ry="67.446358" />
    <path
       class="cls-1"
       d="m 83.605541,112.72884 h -1.675142 c -0.02638,-0.11391 -0.125305,-0.14071 -0.211041,-0.18761 -0.184661,-0.0938 -0.362727,-0.20102 -0.514413,-0.34842 -0.435273,-0.42212 -0.672694,-0.93135 -0.725455,-1.53438 -0.01978,-0.2077 -0.01978,-0.42212 -0.01978,-0.62983 0,-3.99339 0,-7.98008 0,-11.973475 0,-0.569526 -0.0066,-1.139054 -0.04616,-1.701881 -0.05936,-0.877743 -0.178065,-1.742085 -0.382512,-2.599727 -0.402297,-1.64828 -1.114562,-3.129051 -2.321455,-4.33511 -0.05276,-0.0536 -0.09893,-0.107205 -0.138495,-0.167507 -0.02638,-0.0469 -0.0066,-0.100505 0.03957,-0.127306 0.08573,-0.0536 0.184661,-0.0469 0.283586,-0.0603 1.220083,-0.147408 2.433571,-0.341717 3.640463,-0.576227 2.974364,-0.576229 5.737687,-1.681781 8.309753,-3.289861 1.365174,-0.85094 2.585256,-1.889491 3.653653,-3.102249 1.088182,-1.23956 1.899372,-2.653329 2.552281,-4.167602 1.107967,-2.572925 1.741091,-5.266455 1.998298,-8.05379 0.112119,-1.23286 0.164876,-2.465719 0.158281,-3.698579 0,-1.01845 -0.07255,-2.023498 -0.217637,-3.028546 -0.375917,-2.505922 -1.233272,-4.824234 -2.605041,-6.941536 -0.494629,-0.763837 -1.048612,-1.487472 -1.655355,-2.164205 -0.138496,-0.160808 -0.184661,-0.308215 -0.09893,-0.502525 0.02638,-0.0536 0.03957,-0.113905 0.06595,-0.174208 0.725455,-1.996697 0.936496,-4.053697 0.758429,-6.164299 -0.15828,-1.849289 -0.626529,-3.618175 -1.266247,-5.353559 -0.105517,-0.281414 -0.276993,-0.40872 -0.553984,-0.455622 -0.461653,-0.07371 -0.916711,-0.08041 -1.378363,-0.0268 -0.765026,0.08041 -1.510266,0.268014 -2.235719,0.515926 -1.892777,0.65663 -3.713009,1.467371 -5.460695,2.465719 -0.837571,0.475722 -1.63557,1.018449 -2.453355,1.534374 -0.125306,0.08041 -0.250612,0.154107 -0.369323,0.234511 -0.151685,0.107205 -0.316561,0.127307 -0.488033,0.067 -0.04616,-0.0134 -0.09234,-0.0268 -0.138496,-0.0402 -1.75428,-0.475723 -3.528347,-0.830841 -5.322199,-1.078753 -1.167322,-0.160808 -2.341239,-0.274714 -3.521752,-0.321616 -0.94309,-0.0402 -1.892777,-0.0603 -2.842462,-0.0402 -1.42453,0.0268 -2.842464,0.107205 -4.253803,0.274714 -2.004892,0.23451 -3.989999,0.609728 -5.942132,1.145755 -0.521008,0.140706 -0.455058,0.147407 -0.910116,-0.147407 -0.718859,-0.462323 -1.437719,-0.924644 -2.163173,-1.373566 -0.672695,-0.422121 -1.391554,-0.763838 -2.110414,-1.098854 -1.299222,-0.589629 -2.605041,-1.165856 -3.957025,-1.621478 -0.765024,-0.261314 -1.543239,-0.448922 -2.347834,-0.522626 -0.428678,-0.0402 -0.85076,-0.0268 -1.272844,0.0536 -0.22423,0.0402 -0.375917,0.147408 -0.448462,0.375219 -0.125306,0.388619 -0.270397,0.770537 -0.389108,1.159156 -0.573768,1.835889 -0.923305,3.71198 -0.910115,5.641674 0.0066,1.581275 0.257207,3.12235 0.778215,4.616523 0.03957,0.113905 0.07914,0.234511 0.125306,0.348416 0.06595,0.167508 0.04616,0.308215 -0.07914,0.442221 -0.131901,0.147408 -0.257206,0.294815 -0.382512,0.448922 -2.578662,3.07545 -3.91086,6.653423 -4.088927,10.673617 -0.07914,1.815789 -0.0066,3.631576 0.204447,5.440664 0.316562,2.720332 1.015637,5.326757 2.149984,7.819279 1.074991,2.371915 2.611636,4.355211 4.662694,5.929787 0.863951,0.663331 1.793851,1.232859 2.750132,1.742084 1.536645,0.817439 3.12605,1.494172 4.801191,1.949794 1.549834,0.422121 3.126049,0.723635 4.72205,0.931346 0.375917,0.0469 0.745239,0.09381 1.121156,0.147406 0.171472,0.0268 0.197852,0.120607 0.07914,0.254613 -0.03298,0.0402 -0.06595,0.0737 -0.09893,0.107205 -0.870545,0.911245 -1.497074,1.969896 -1.919157,3.162553 -0.230826,0.649932 -0.408892,1.319964 -0.527603,2.003397 -0.02638,0.147407 -0.05936,0.288114 -0.07255,0.435522 -0.01979,0.194309 -0.118712,0.314914 -0.296778,0.381918 -0.07914,0.0335 -0.15828,0.067 -0.230827,0.100505 -0.923305,0.39532 -1.886181,0.656632 -2.875438,0.81074 -0.91671,0.140707 -1.840016,0.160808 -2.763322,0.160808 -0.692479,0 -1.358579,-0.127306 -1.998297,-0.361818 -1.305819,-0.475726 -2.420382,-1.252964 -3.370067,-2.271413 -0.633125,-0.676733 -1.160728,-1.42717 -1.615786,-2.231209 -0.501223,-0.884442 -1.101372,-1.68848 -1.840016,-2.385315 -0.870546,-0.82414 -1.859802,-1.467371 -2.934794,-1.983296 -0.455058,-0.21441 -0.923305,-0.381919 -1.424528,-0.442221 -0.191257,-0.0268 -0.382513,-0.0536 -0.573769,-0.08711 -0.547389,-0.08711 -1.088182,-0.0469 -1.628976,0.0603 -0.178066,0.0335 -0.349537,0.09381 -0.507818,0.20101 -0.244016,0.174208 -0.316562,0.388619 -0.217636,0.676733 0.07255,0.201009 0.184661,0.375218 0.303372,0.549427 0.422082,0.589629 0.95628,1.05195 1.58281,1.400367 0.408892,0.227812 0.784809,0.489124 1.134347,0.804039 0.540793,0.489124 1.002446,1.038551 1.431124,1.628179 0.613338,0.83084 1.173917,1.695183 1.602595,2.646629 0.290182,0.63653 0.567174,1.286461 0.817785,1.943093 0.382512,1.01845 0.943091,1.929692 1.714711,2.680128 1.226677,1.199363 2.670991,2.016803 4.332942,2.398723 1.200298,0.27471 2.42038,0.42212 3.647058,0.47571 0.573769,0.0268 1.140942,0.0268 1.714711,0.0268 0.560579,0 1.114562,-0.02 1.67514,-0.0804 0.553984,-0.0603 1.101372,-0.17421 1.655356,-0.26131 0.09893,-0.0134 0.191256,-0.0335 0.290181,-0.0335 0.11212,0 0.184661,0.0536 0.204447,0.16751 0.01319,0.12061 0.01978,0.24791 0.01978,0.36851 0,1.46738 0,2.94145 0.01978,4.40882 0.01319,0.89114 -0.01978,1.77559 0.03957,2.66673 0.01979,0.29482 0.01319,0.59634 0,0.89115 -0.0066,0.1943 -0.01978,0.39531 -0.06595,0.58963 -0.158281,0.71022 -0.540793,1.25965 -1.200298,1.58797 -0.09233,0.0469 -0.211041,0.0737 -0.244015,0.20101 h -1.675141 c -0.01979,-0.0804 -0.07255,-0.12731 -0.145091,-0.15411 -0.125306,-0.0469 -0.250612,-0.0938 -0.375918,-0.1407 -2.624826,-0.91795 -5.157322,-2.0704 -7.577703,-3.45737 -3.040314,-1.74208 -5.836611,-3.83259 -8.388892,-6.2581 -2.182959,-2.07041 -4.141686,-4.348518 -5.902563,-6.800839 -1.793851,-2.492521 -3.350281,-5.119048 -4.629718,-7.919785 -0.995852,-2.191005 -1.820231,-4.449014 -2.459951,-6.774027 -0.593554,-2.170906 -1.015636,-4.375311 -1.292628,-6.60652 -0.145091,-1.192657 -0.250611,-2.385315 -0.296776,-3.577973 -0.03957,-0.998349 -0.04616,-1.996696 -0.03957,-3.001746 0.01319,-1.882791 0.145091,-3.752181 0.375918,-5.614872 0.316561,-2.49252 0.830975,-4.944838 1.549834,-7.350255 1.213487,-4.046996 2.967769,-7.832679 5.210082,-11.390551 1.886183,-2.995046 4.075737,-5.748879 6.588448,-8.234699 1.226676,-1.219459 2.519305,-2.358514 3.877884,-3.423866 2.967768,-2.325013 6.159768,-4.274807 9.58919,-5.822582 2.394,-1.085453 4.867141,-1.936394 7.412827,-2.566224 2.710562,-0.670032 5.460694,-1.085452 8.250397,-1.226159 0.09893,0 0.191256,-0.0201 0.290182,-0.0335 0.05935,-0.0067 0.112119,-0.0469 0.145091,-0.100506 h 4.596744 c 0.09893,0.147407 0.257206,0.127305 0.395702,0.134007 0.896926,0.0402 1.793851,0.127306 2.690777,0.227811 1.71471,0.194309 3.416232,0.489123 5.097967,0.884442 4.405488,1.038551 8.547174,2.733733 12.444843,5.058746 3.587703,2.137402 6.845654,4.696926 9.74747,7.725473 1.06181,1.105554 2.06425,2.264709 3.00734,3.477469 2.48633,3.196054 4.54399,6.653421 6.15977,10.385502 1.12116,2.599727 1.9917,5.279856 2.60504,8.04709 0.42208,1.902892 0.72546,3.832586 0.90352,5.775679 0.0264,0.261313 0.0462,0.515926 0.0726,0.777239 0.0132,0.107205 0.0132,0.227811 0.13191,0.288113 v 7.263152 c -0.0594,0.0268 -0.0989,0.0737 -0.10558,0.140707 -0.0198,0.09381 -0.0264,0.194309 -0.0396,0.294814 -0.0857,1.118954 -0.21762,2.237909 -0.3891,3.343462 -0.34294,2.224508 -0.83757,4.408813 -1.50367,6.559617 -1.0486,3.370264 -2.47314,6.57302 -4.26699,9.601566 -1.29923,2.197706 -2.76332,4.268107 -4.37911,6.237996 -2.05106,2.505919 -4.332942,4.770629 -6.858844,6.780729 -2.004892,1.59467 -4.128496,3.00174 -6.377405,4.2212 -2.149983,1.16586 -4.379107,2.14411 -6.680777,2.94814 -0.11212,0.0402 -0.230827,0.0804 -0.342942,0.12731 -0.07255,0.0268 -0.125306,0.0737 -0.138496,0.1608 z"
       id="path1"
       style="fill:#bababa;fill-opacity:1;stroke-width:0.664748"
       inkscape:label="path1" />
  </g>
</svg>
