<?xml version="1.0" encoding="UTF-8"?>
<svg id="Layer_2" data-name="Layer 2" xmlns="http://www.w3.org/2000/svg" xmlns:xlink="http://www.w3.org/1999/xlink" viewBox="0 0 135 135">
  <defs>
    <style>
      .cls-1 {
        fill: #fff;
      }

      .cls-2 {
        fill: url(#linear-gradient);
      }
    </style>
    <linearGradient id="linear-gradient" x1="0" y1="67.5" x2="135" y2="67.5" gradientUnits="userSpaceOnUse">
      <stop offset="0" stop-color="#e17756"/>
      <stop offset="1" stop-color="#d92a7a"/>
    </linearGradient>
  </defs>
  <g id="Graphic_Elements" data-name="Graphic Elements">
    <g>
      <circle class="cls-2" cx="67.5" cy="67.5" r="67.5"/>
      <g>
        <path class="cls-1" d="m57.49,66.24c-.09.23-.25.33-.37.46-2.88,2.87-5.76,5.74-8.64,8.61-.18.18-.38.32-.61.43-.95.46-1.8,1.07-2.55,1.82-2.37,2.36-4.73,4.73-7.1,7.09-.95.94-1.66,2.02-2.14,3.27-.55,1.43-.67,2.91-.47,4.41.25,1.9,1.09,3.52,2.46,4.85,1.46,1.42,3.22,2.17,5.25,2.33,2.11.16,4.01-.45,5.74-1.62.31-.21.59-.46.86-.72,2.64-2.63,5.27-5.26,7.9-7.9.6-.6,1.07-1.29,1.41-2.05.13-.28.29-.53.51-.75,2.01-2,4.01-4.01,6.01-6.01.85-.85,1.7-1.7,2.55-2.55.05-.05.1-.11.15-.15.26-.24.39-.21.48.12.17.61.35,1.22.46,1.84,1.16,6.49-.52,12.13-5.18,16.83-2.43,2.45-4.88,4.89-7.33,7.32-3.05,3.02-6.73,4.76-11,5.2-9.22.94-17.55-5.03-19.58-14.07-1.03-4.6-.32-8.97,1.97-13.09.77-1.38,1.73-2.61,2.84-3.73,2.55-2.56,5.1-5.12,7.67-7.67,2.58-2.56,5.68-4.19,9.25-4.91,3.09-.62,6.14-.43,9.14.51.1.03.2.08.33.13Z"/>
        <path class="cls-1" d="m66.24,57.54c-.42-1.2-.68-2.35-.83-3.54-.22-1.77-.2-3.53.08-5.29.51-3.19,1.79-6.03,3.79-8.56.41-.52.86-1,1.32-1.47,2.5-2.51,5-5.02,7.51-7.52.88-.87,1.82-1.67,2.87-2.34,2.41-1.54,5.02-2.5,7.86-2.84,1.94-.23,3.87-.2,5.77.24,6.86,1.57,11.45,5.69,13.74,12.35,1.89,6.87.54,12.99-4.38,18.2-2.58,2.73-5.28,5.36-7.97,7.98-2.58,2.51-5.69,4.04-9.23,4.71-1.95.37-3.91.41-5.88.14-1.13-.15-2.21-.45-3.34-.78.21-.37.49-.64.75-.88,1.72-1.6,3.33-3.31,5-4.96,1.1-1.08,2.18-2.17,3.26-3.26.19-.19.4-.35.65-.47.92-.44,1.74-1.03,2.46-1.75,2.42-2.42,4.83-4.83,7.24-7.25,1.19-1.19,1.99-2.61,2.37-4.25,1.13-4.99-1.94-9.41-6.45-10.31-3.01-.6-5.69.16-7.89,2.29-2.57,2.47-5.05,5.02-7.56,7.54-.68.68-1.22,1.48-1.62,2.35-.1.22-.22.41-.39.58-2.95,2.95-5.91,5.9-8.86,8.85-.06.06-.13.12-.26.23Z"/>
        <path class="cls-1" d="m54.19,85.56c-.56-.06-1.08.02-1.53-.21-.66-.34-1.34-.62-1.88-1.21-.48-.53-.85-1.1-1.07-1.76-.3-.92-.34-1.87-.09-2.82.23-.88.67-1.63,1.31-2.27,5.06-5.06,10.12-10.12,15.18-15.18,3.72-3.72,7.43-7.44,11.15-11.16,1.5-1.49,3.64-1.9,5.49-1.06,2.77,1.26,3.67,4.71,1.88,7.19-.24.34-.54.63-.83.93-7.96,7.96-15.92,15.92-23.88,23.88-.7.7-1.4,1.41-2.1,2.11-.67.67-1.44,1.16-2.37,1.43-.44.13-.89.07-1.27.13Z"/>
      </g>
    </g>
  </g>
</svg>