<?xml version="1.0" encoding="UTF-8"?>
<svg id="Layer_2" data-name="Layer 2" xmlns="http://www.w3.org/2000/svg" viewBox="0 0 135.03 135">
  <defs>
    <style>
      .cls-1 {
        fill: #fff;
      }

      .cls-2 {
        fill: #5a75a5;
      }
    </style>
  </defs>
  <g id="Graphic_Elements" data-name="Graphic Elements">
    <g>
      <path class="cls-2" d="m73.28,135c-43.36,0-69.68-29.83-72.83-59.44-2.22-20.91,3.76-39.25,18.09-54.55C30.61,8.12,45.76,1.1,63.45.12c19.33-1.07,36.31,4.97,50.43,18.22,14.13,13.26,21.14,29.94,21.15,49.2,0,18.51-6.65,34.64-19.85,47.74-13.15,13.06-29.2,19.48-41.9,19.72Zm.63-82.51h0c0-3.74.1-7.49-.03-11.22-.12-3.26-1-3.94-2.7-3.96-6.04-.05-12.08-.03-18.11-.01-1.16,0-2.12.6-2.48,1.65-.33.95-.16,1.96.62,2.82,2.55,2.8,3.69,6.14,3.67,9.91-.02,4.93,0,9.86,0,14.8,0,1.05-.01,2.09-.28,3.14-.36,1.41-1.89,2.06-3.1,1.23-2.61-1.79-4.42-4.3-6.16-6.85-3.14-4.61-5.66-9.57-7.93-14.65-1.17-2.62-2.23-5.31-3.08-8.07-.94-3.06-2.35-4-5.59-4-3.57,0-7.14-.03-10.72.02-2.74.04-4.05,1.67-3.48,4.33,1.07,4.96,2.79,9.71,4.95,14.29,2.3,4.88,4.9,9.61,7.8,14.17,4.1,6.44,8.36,12.75,14.32,17.7,3.95,3.29,8.26,5.99,13.05,7.86,4.8,1.87,9.83,2.21,14.92,1.88,2.99-.19,4.38-1.71,4.39-4.7.01-3.61.02-7.23.03-10.84,0-1.1.33-2.1,1.51-2.27,1.65-.24,3.29-.04,4.77.86,3.84,2.33,7.03,5.41,10.08,8.67,2.14,2.29,4.13,4.73,6.49,6.82.9.8,1.87,1.47,3.12,1.48,4.29.03,8.59.11,12.88,0,1.89-.05,3.33-.77,3.24-3.44-.03-1.07-.44-2-.9-2.86-2.19-4.1-5.32-7.5-8.32-11-2.27-2.65-4.85-4.99-7.26-7.5-2.23-2.33-2.42-3.26-.64-5.89,3.71-5.47,7.46-10.92,10.74-16.67,1.64-2.88,3.22-5.79,4.14-9.01.52-1.8.08-3.12-1.25-3.5-.71-.21-1.44-.41-2.22-.41-3.7.03-7.4.05-11.1,0-2.08-.02-3.58.86-4.5,2.68-1.11,2.21-2.17,4.44-3.23,6.68-2.48,5.22-5.52,10.1-9.09,14.65-1.41,1.8-3,3.45-4.92,4.71-1.87,1.23-3.22.59-3.53-1.64-.07-.5-.06-1.02-.06-1.53,0-3.44,0-6.89,0-10.33Z"/>
      <path class="cls-1" d="m73.91,52.49c0,3.44,0,6.89,0,10.33,0,.51,0,1.03.06,1.53.31,2.22,1.66,2.87,3.53,1.64,1.92-1.26,3.51-2.91,4.92-4.71,3.57-4.55,6.61-9.42,9.09-14.65,1.06-2.23,2.12-4.47,3.23-6.68.92-1.83,2.42-2.71,4.5-2.68,3.7.04,7.4.03,11.1,0,.78,0,1.51.2,2.22.41,1.33.38,1.77,1.7,1.25,3.5-.92,3.21-2.5,6.13-4.14,9.01-3.27,5.75-7.03,11.19-10.74,16.67-1.78,2.63-1.59,3.56.64,5.89,2.41,2.51,4.99,4.85,7.26,7.5,3,3.5,6.12,6.9,8.32,11,.46.87.87,1.79.9,2.86.08,2.66-1.35,3.39-3.24,3.44-4.29.11-8.59.03-12.88,0-1.25,0-2.22-.68-3.12-1.48-2.36-2.09-4.35-4.53-6.49-6.82-3.06-3.26-6.24-6.34-10.08-8.67-1.49-.9-3.12-1.1-4.77-.86-1.18.17-1.51,1.17-1.51,2.27,0,3.61-.02,7.23-.03,10.84,0,3-1.4,4.51-4.39,4.7-5.09.33-10.12-.01-14.92-1.88-4.79-1.87-9.09-4.56-13.05-7.86-5.95-4.96-10.22-11.26-14.32-17.7-2.9-4.56-5.5-9.28-7.8-14.17-2.16-4.58-3.88-9.33-4.95-14.29-.57-2.66.74-4.3,3.48-4.33,3.57-.05,7.14-.02,10.72-.02,3.24,0,4.65.94,5.59,4,.85,2.76,1.91,5.45,3.08,8.07,2.27,5.08,4.79,10.04,7.93,14.65,1.74,2.56,3.55,5.06,6.16,6.85,1.21.83,2.74.17,3.1-1.23.27-1.05.28-2.09.28-3.14,0-4.93,0-9.86,0-14.8.01-3.77-1.13-7.11-3.67-9.91-.78-.86-.95-1.87-.62-2.82.36-1.05,1.33-1.64,2.48-1.65,6.04-.02,12.08-.03,18.11.01,1.71.01,2.59.69,2.7,3.96.13,3.74.03,7.48.03,11.22h0Z"/>
    </g>
  </g>
</svg>