<?xml version="1.0" encoding="utf-8"?>
<!-- Generator: Adobe Illustrator 24.0.2, SVG Export Plug-In . SVG Version: 6.00 Build 0)  -->
<svg version="1.1" id="Layer_1" xmlns="http://www.w3.org/2000/svg" xmlns:xlink="http://www.w3.org/1999/xlink" x="0px" y="0px"
	 viewBox="0 0 689.3 131.4" style="enable-background:new 0 0 689.3 131.4;" xml:space="preserve">
<style type="text/css">
	.st0{fill:#527FAF;}
</style>
<title>Asset 3</title>
<g id="Layer_2_1_">
	<g id="Layer_1-2">
		<polygon class="st0" points="83.9,101.1 11.3,9 0,9 0,122.9 12.3,122.9 12.2,31.4 84.7,122.7 95.9,122.6 95.9,9 83.8,9 		"/>
		<polygon class="st0" points="372.6,9.3 339,99.4 304.8,9.3 292,9.3 307.6,50.3 289.2,100.1 256,9.3 253.8,9.3 253.8,9 178.6,9 
			178.6,9 106.8,9 106.8,122.4 180.7,122.4 180.7,110.2 119.2,110.2 119.2,71.4 172.6,71.4 172.6,59.2 119.2,59.2 119.2,21.2 
			177.9,21.2 177.9,21.2 209.5,21.2 209.5,122.4 221.9,122.4 221.9,21.2 246.6,21.2 284.8,122.4 292.1,122.4 313.8,66.5 
			335.2,122.4 342.4,122.4 385.9,9.3 		"/>
		<path class="st0" d="M577.3,66c2.9-3.2,5.1-7.1,6.5-11.2c1.3-4.1,2-8.3,2-12.6c0.1-5.2-1-10.4-3.3-15.1c-2.1-4.1-5.1-7.6-8.7-10.4
			c-3.5-2.7-7.5-4.7-11.8-5.9C557.7,9.6,553.4,9,549,9h-27.2v113.4h12.5V76.9h14.3c2.3,0,4.6-0.1,6.9-0.4l28.2,45.9h14.5L568,72.9
			C571.5,71.2,574.6,68.9,577.3,66z M560.5,62.6c-4,1.5-8.2,2.2-12.4,2.1h-13.8V21.2h15.8c3.3,0,6.5,0.5,9.6,1.7
			c2.7,1.1,5.2,2.6,7.3,4.7c2,1.9,3.5,4.2,4.5,6.7c1.1,2.6,1.6,5.4,1.6,8.2c0,2.6-0.4,5.2-1.2,7.8c-0.8,2.6-2.1,5-3.9,7.1
			C566,59.7,563.4,61.5,560.5,62.6L560.5,62.6z"/>
		<polygon class="st0" points="637.6,56.1 685.3,9 668.5,9 618.3,58.5 618.3,9 605.7,9 605.7,122.4 618.3,122.4 618.2,74.2 
			628.5,64.4 673.5,122.4 689.3,122.4 		"/>
		<path class="st0" d="M504.4,33.6c2.2-3.5,2-8-0.6-11.3c-2.4-3.6-6.9-5.1-11-3.8l0,0c-0.6-0.7-1.3-1.3-2-1.9c0,0,0-0.1,0-0.2
			c0.9-4.1-0.9-8.2-4.5-10.4c-3.4-2.5-7.9-2.5-11.3,0l-0.1,0.1L474.5,6c-9.2-4.3-19.3-6.4-29.4-6c-9,0.3-17.8,2.4-25.9,6.3
			c-3.9-2.6-8.1-2.7-11.8-0.3s-5.2,6.4-4.4,11.1c0,0.1,0,0.2-0.1,0.3c-0.8,1-1.8,1.9-2.8,2.9l-0.2,0.2l-1.4,1.4
			c-1,0.9-1.6,2.2-1.6,3.6c0.1,1.2,0.6,2.3,1.5,3.1c2.1,1.8,4.6,1.6,6.7-0.7c1.2-1.3,2.4-2.5,3.6-3.7c4.8,1.7,8.7,0.7,12.1-3
			c5.6,1.7,10.9,4,16,6.9v0.4c0.1,1,0.2,1.9,0.3,2.9c0,0.1,0,0.2,0,0.4c-2,2.2-4,4.4-6,6.5l-0.1,0.2c-1.8,1.9-3.6,3.9-5.3,5.8
			l-0.2,0.3c-3.7-0.4-7.3,1.2-9.5,4.2c-0.2,0.1-0.4,0.2-0.6,0.3c-2.4,0.3-4.8,0.5-7.1,0.7l-2,0.2c-2.4,0.2-4.8,0.4-7.2,0.7
			c-0.5,0.1-1.1,0.2-1.6,0.2l-0.4,0.1c-2.6,0.5-3.5,0.5-4.2-0.5c1-3.5,2.3-7,4-10.3l0-0.1l0,0c0.6-1.3,0.5-2.9-0.3-4.1
			c-0.9-1.3-2.5-2-4.1-1.8c-1.5,0.2-2.8,1.1-3.4,2.5c-1.9,4.3-3.4,7.7-4.7,10.8c-0.1,0.2-0.1,0.3-0.1,0.3l0,0
			c-4.5,0.7-7.9,4.4-8.3,8.9c-0.6,4.3,1.7,8.5,5.7,10.4h0.1c0,0.1,0,0.2,0,0.4c0.1,3.1,0.4,6.2,0.9,9.3c2.4,14.3,9.5,27.3,20,37.3
			c0,0.1,0,0.1,0,0.2c-0.7,4,1,8,4.4,10.3c3.4,2.4,7.2,2.5,11.1,0.5c0.1,0,0.2,0,0.4,0c18,8.8,39.1,8.8,57.1-0.1l0.1-0.1h0.1
			c3.4,2.5,8.1,2.5,11.5,0.1c3.6-2.3,5.3-6.6,4.3-10.8l-0.1-0.2c0.1-0.2,0.3-0.3,0.4-0.4c11-10.3,18.1-24.2,19.9-39.2
			c1.9-13.9-0.8-28.1-7.6-40.4L504.4,33.6z M390.2,57.6c0,2.1-1.7,3.9-3.9,3.9c-2.1,0-3.9-1.7-3.9-3.9c0-2.1,1.7-3.9,3.9-3.9
			c0,0,0,0,0,0C388.4,53.7,390.2,55.5,390.2,57.6C390.2,57.6,390.2,57.6,390.2,57.6L390.2,57.6z M407.3,105.6
			c-3.5-3.6-6.4-7.6-8.7-12.1c-4.8-9-7.3-17.6-7.6-26.4c0-0.2,0-0.3,0-0.4l0,0c2.9-1.2,4.9-3.7,5.5-6.8c5.4-0.7,11-1.4,16.2-2l2-0.3
			c0.5,0.9,0.9,1.7,1.3,2.5C409.2,74.4,406.2,90,407.3,105.6L407.3,105.6z M413,112c2.1,0,3.9,1.7,3.9,3.9s-1.7,3.9-3.9,3.9
			c-2.1,0-3.9-1.7-3.9-3.9l0,0C409.1,113.7,410.9,112,413,112z M424.4,58.4c-2.1,0-3.9-1.7-3.9-3.9s1.7-3.9,3.9-3.9
			c2.1,0,3.9,1.7,3.9,3.9c0,0,0,0,0,0C428.3,56.7,426.6,58.5,424.4,58.4C424.5,58.5,424.5,58.5,424.4,58.4L424.4,58.4z M484.5,14.5
			c0,2.1-1.7,3.9-3.9,3.9c-2.1,0-3.9-1.7-3.9-3.9c0-2.1,1.7-3.9,3.9-3.9c0,0,0,0,0,0C482.8,10.7,484.5,12.4,484.5,14.5
			C484.5,14.5,484.5,14.6,484.5,14.5L484.5,14.5z M486.2,63.8l0.1-0.2c4.5-7.7,8.2-16,10.8-24.5c6.9,13.1,8.4,28.3,4.3,42.4
			l-0.6-0.5c-4.5-3.6-8.6-6.8-12.8-10.2c0,0,0-0.1,0-0.2v-0.2c0-0.2,0-0.3-0.1-0.4c-0.1-0.5-0.2-1-0.3-1.7c-0.2-1.4-0.6-2.8-1.1-4.1
			C486.4,64.2,486.3,64,486.2,63.8L486.2,63.8z M495.5,32.3c-2.1,0-3.9-1.7-3.9-3.9s1.7-3.9,3.9-3.9c2.1,0,3.9,1.7,3.9,3.9
			c0,0,0,0,0,0C499.4,30.6,497.6,32.3,495.5,32.3C495.5,32.3,495.5,32.3,495.5,32.3L495.5,32.3z M485.6,96.1
			c-1.5-0.9-3.4-0.9-4.9-0.1c-1.5,0.9-2.3,2.6-2.2,4.3c0,0.2,0,0.4,0,0.6c0,1.4,0,2.8-0.1,4.2v1.2v0.2l-0.2,0.1
			c-4.3,1.6-6.7,5.4-6.6,10.2c-10.8,5.3-23.2,6.9-35,4.4c-3.5-0.8-7-1.8-10.4-3l-2.8-0.9c0.1-0.2,0.4-0.3,1.2-0.6
			c19.8-7.7,37.3-20.4,50.8-36.8l0.1-0.2l0.5,0.1l0.4,0.1c0.2,1.5,0.5,3,0.8,4.4c0.2,0.9,0.4,1.9,0.6,2.8c0.5,2.9,2.5,4.5,5.2,4
			c1.2-0.2,2.2-0.8,2.9-1.7c0.7-1.1,1-2.5,0.6-3.8l-0.1-0.3c-0.2-0.9-0.3-1.7-0.5-2.6v-0.2l-0.5-2.3l4.6,3.8l3,2.5l3.9,3.3l1.1,1
			c-2.7,5.5-6.3,10.6-10.7,14.9c0-1.1,0.1-2.3,0.2-3.4l0.1-2.5C487.7,98.3,486.9,96.9,485.6,96.1L485.6,96.1z M481.9,112.3
			c2.1,0,3.9,1.7,3.9,3.9s-1.7,3.9-3.9,3.9c-2.1,0-3.9-1.7-3.9-3.9l0,0C478,114.1,479.7,112.4,481.9,112.3L481.9,112.3z M447.3,25.2
			c2.1,0,3.9,1.7,3.9,3.9s-1.7,3.9-3.9,3.9c-2.1,0-3.9-1.7-3.9-3.9c0,0,0,0,0,0C443.4,26.9,445.1,25.2,447.3,25.2L447.3,25.2z
			 M477.8,73.5c-2.1,0-3.9-1.7-3.9-3.9s1.7-3.9,3.9-3.9c2.1,0,3.9,1.7,3.9,3.9l0,0C481.7,71.8,479.9,73.5,477.8,73.5
			C477.8,73.5,477.8,73.5,477.8,73.5L477.8,73.5z M443.4,38.3c2.5,1,5.3,1,7.8,0c6.9,6.2,12.7,13.5,17.1,21.7l-2-0.8l-2.1-0.8
			c-4.7-1.8-9.6-3.7-14.5-5.3c-4.6-1.4-9.4-2.4-14.2-3c-1.5-0.2-2.1-0.5-2.4-0.9l0.1-0.2c0.7-1,1.5-1.9,2.3-2.8c2-2.1,4-4.1,6.2-6.2
			L443.4,38.3z M478.4,59.3l-0.3,0.1c-5.2-10.5-12.2-19.9-20.9-27.8c0-0.1,0-0.3,0-0.4V31c0.3-0.7,0.3-1.5,0.2-2.3
			c-0.2-0.7-0.2-0.8,1.3-1.5c2.9-1.3,5.8-2.6,8.7-3.8l5.1-2.3c3.9,4,7.4,4.7,12.7,2.6c0.2,0.2,0.5,0.4,0.7,0.7
			c-1.6,4.5-0.7,8.6,2.7,11.8C486.3,44.3,482.8,52.1,478.4,59.3L478.4,59.3z M459.9,17.2c-2.2,0.9-4.3,1.9-6.5,2.8
			c-0.1,0.1-0.3,0.1-0.4,0.1c-1.8-1.1-3.9-1.7-6-1.8c-1.8,0-3.6,0.6-5.1,1.6l-5-2c-3.9-1.6-7.7-3.1-11.5-4.6
			c4.2-1.8,8.6-3.1,13.1-3.7c10.3-1.6,20.9-0.3,30.5,3.7C466,14.5,463,15.9,459.9,17.2z M436.6,59.3c2.9,0.5,5.9,1.1,8.8,1.8
			c7.6,1.9,15,4.5,22,8h0.1c-0.2,1.6,0.2,3.1,0.9,4.5l0.1,0.2c-0.2,0.3-0.4,0.5-0.6,0.8c-12.6,15.2-28.9,26.9-47.4,34l-0.8-0.5
			c-1-0.5-2.2-1.2-3.4-1.8c-1.3-14.2,1.2-28.5,7.2-41.4c4.3,0.3,8.4-2.2,10.2-6.1L436.6,59.3z M416.9,14.6c0,2.1-1.7,3.9-3.9,3.9
			c-2.1,0-3.9-1.7-3.9-3.9c0-2.1,1.7-3.9,3.9-3.9C415.1,10.7,416.9,12.5,416.9,14.6z"/>
	</g>
</g>
</svg>
