<svg width="320" height="226" viewBox="0 0 320 226" fill="none" xmlns="http://www.w3.org/2000/svg">
<path d="M255.633 144.431L256.055 138.558C256.118 137.693 255.543 136.909 254.699 136.707L246.105 134.655C245.434 134.495 244.907 133.961 244.781 133.282C244.293 130.651 243.445 128.138 242.293 125.795C241.985 125.174 242.086 124.431 242.531 123.899L248.19 117.11C248.745 116.442 248.739 115.471 248.167 114.815L244.314 110.362C243.745 109.706 242.786 109.558 242.047 110.011L234.514 114.641C233.927 115.002 233.175 114.995 232.603 114.603C230.451 113.126 228.083 111.929 225.553 111.066C224.901 110.845 224.445 110.246 224.383 109.559L223.586 100.759C223.507 99.8939 222.815 99.2126 221.949 99.1513L216.074 98.7273C215.207 98.6646 214.425 99.2393 214.222 100.083L212.171 108.679C212.011 109.35 211.477 109.877 210.799 110.002C208.166 110.493 205.654 111.339 203.313 112.493C202.69 112.798 201.947 112.698 201.415 112.255L194.625 106.594C193.958 106.038 192.989 106.047 192.33 106.615L187.879 110.469C187.221 111.038 187.071 111.997 187.527 112.737L192.157 120.269C192.518 120.858 192.511 121.607 192.121 122.179C190.642 124.331 189.442 126.698 188.583 129.231C188.359 129.885 187.763 130.338 187.074 130.402L178.274 131.198C177.41 131.277 176.729 131.97 176.666 132.835L176.242 138.709C176.179 139.577 176.755 140.359 177.601 140.561L186.194 142.614C186.866 142.774 187.391 143.307 187.521 143.986C188.006 146.617 188.854 149.129 190.009 151.471C190.315 152.094 190.214 152.837 189.771 153.366L184.109 160.157C183.551 160.826 183.562 161.794 184.131 162.453L187.986 166.905C188.554 167.565 189.513 167.711 190.253 167.254L197.785 162.627C198.375 162.265 199.123 162.274 199.697 162.663C201.847 164.142 204.214 165.338 206.749 166.201C207.401 166.423 207.854 167.021 207.917 167.709L208.714 176.51C208.791 177.375 209.485 178.054 210.353 178.117L216.227 178.539C217.093 178.602 217.875 178.029 218.077 177.185L220.127 168.589C220.287 167.917 220.825 167.391 221.502 167.265C224.13 166.773 226.646 165.93 228.987 164.774C229.609 164.471 230.354 164.57 230.883 165.014L237.674 170.673C238.341 171.231 239.311 171.222 239.967 170.653L244.421 166.798C245.081 166.229 245.225 165.271 244.771 164.529L240.146 156.997C239.781 156.409 239.787 155.659 240.181 155.089C241.658 152.935 242.854 150.57 243.718 148.037C243.939 147.383 244.537 146.931 245.225 146.869L254.025 146.07C254.889 145.99 255.57 145.299 255.633 144.431Z" fill="#507BAA"/>
<path d="M240.572 140.398C240.349 143.48 239.562 146.387 238.328 149.034C235.234 155.615 229.32 160.53 222.252 162.351C219.753 162.995 217.105 163.246 214.39 163.051C200.9 162.078 190.756 150.358 191.726 136.876C192.7 123.387 204.421 113.242 217.912 114.214C231.4 115.187 241.544 126.907 240.572 140.398Z" fill="#4165B5"/>
<mask id="mask0_649_283" style="mask-type:luminance" maskUnits="userSpaceOnUse" x="211" y="133" width="28" height="30">
<path d="M211.627 133.977H238.329V162.352H211.627V133.977Z" fill="white"/>
</mask>
<g mask="url(#mask0_649_283)">
<path d="M238.328 149.033C235.235 155.615 229.319 160.531 222.251 162.351L211.628 146.912L223.566 133.977L238.328 149.033Z" fill="#3A5EAB"/>
</g>
<path d="M211.628 146.91L207.198 140.451L209.485 132.959L216.768 130.077L223.56 133.974L224.752 141.715L219.437 147.473L211.628 146.91Z" fill="#507BAA"/>
<path d="M142.408 134.654L141.758 130.266C141.662 129.621 141.113 129.138 140.458 129.127L133.805 129.025C133.285 129.017 132.812 128.71 132.608 128.231C131.817 126.378 130.784 124.669 129.554 123.135C129.228 122.729 129.18 122.166 129.418 121.703L132.47 115.787C132.769 115.206 132.604 114.493 132.078 114.103L128.518 111.461C127.993 111.071 127.262 111.119 126.796 111.573L122.014 116.207C121.641 116.57 121.088 116.687 120.605 116.491C118.78 115.758 116.845 115.265 114.842 115.045C114.325 114.987 113.896 114.623 113.736 114.127L111.712 107.79C111.513 107.166 110.892 106.779 110.245 106.875L105.857 107.523C105.212 107.619 104.729 108.17 104.717 108.823L104.614 115.477C104.608 115.997 104.301 116.471 103.822 116.675C101.97 117.465 100.26 118.497 98.7262 119.729C98.3195 120.055 97.7555 120.103 97.2942 119.865L91.3769 116.813C90.7969 116.513 90.0835 116.679 89.6942 117.203L87.0502 120.765C86.6609 121.289 86.7089 122.019 87.1635 122.487L91.7982 127.267C92.1595 127.642 92.2769 128.195 92.0822 128.678C91.3489 130.502 90.8542 132.438 90.6355 134.441C90.5782 134.958 90.2129 135.389 89.7182 135.546L83.3795 137.571C82.7582 137.77 82.3702 138.391 82.4649 139.038L83.1155 143.426C83.2102 144.071 83.7609 144.554 84.4142 144.563L91.0675 144.667C91.5875 144.675 92.0609 144.982 92.2649 145.459C93.0555 147.313 94.0889 149.023 95.3195 150.557C95.6462 150.962 95.6929 151.526 95.4542 151.989L92.4035 157.905C92.1035 158.486 92.2689 159.199 92.7942 159.589L96.3555 162.231C96.8795 162.622 97.6102 162.573 98.0782 162.118L102.858 157.485C103.233 157.122 103.785 157.005 104.269 157.199C106.094 157.934 108.029 158.427 110.03 158.647C110.548 158.703 110.978 159.069 111.137 159.565L113.161 165.903C113.362 166.525 113.981 166.913 114.629 166.817L119.014 166.166C119.662 166.071 120.145 165.523 120.156 164.869L120.258 158.215C120.266 157.695 120.573 157.221 121.052 157.017C122.904 156.227 124.613 155.194 126.146 153.963C126.553 153.637 127.117 153.589 127.58 153.827L133.496 156.879C134.077 157.179 134.789 157.014 135.178 156.489L137.822 152.927C138.213 152.403 138.164 151.673 137.709 151.203L133.076 146.423C132.713 146.05 132.596 145.497 132.79 145.014C133.525 143.189 134.018 141.254 134.238 139.251C134.294 138.735 134.658 138.303 135.156 138.145L141.493 136.121C142.116 135.922 142.502 135.301 142.408 134.654Z" fill="#507BAA"/>
<path d="M130.677 134.148C131.017 136.452 130.916 138.717 130.439 140.864C129.243 146.205 125.697 150.786 120.797 153.281C119.067 154.162 117.161 154.782 115.135 155.081C105.06 156.572 95.6879 149.616 94.1972 139.545C92.7065 129.47 99.6639 120.097 109.739 118.608C119.815 117.117 129.187 124.073 130.677 134.148Z" fill="#4165B5"/>
<mask id="mask1_649_283" style="mask-type:luminance" maskUnits="userSpaceOnUse" x="110" y="132" width="21" height="22">
<path d="M110.467 132.21H130.438V153.28H110.467V132.21Z" fill="white"/>
</mask>
<g mask="url(#mask1_649_283)">
<path d="M130.438 140.864C129.242 146.205 125.697 150.787 120.797 153.281L110.466 143.669L117.125 132.209L130.438 140.864Z" fill="#3A5EAB"/>
</g>
<path d="M110.465 143.667L106.153 139.644L106.609 133.764L111.491 130.455L117.122 132.208L119.261 137.704L116.299 142.804L110.465 143.667Z" fill="#507BAA"/>
<path d="M218.794 62.5626L218.573 53.7519C218.542 52.4519 217.573 51.3679 216.284 51.1906L203.185 49.3826C202.158 49.2413 201.297 48.5213 201.01 47.5293C199.898 43.6813 198.276 40.0599 196.216 36.7373C195.669 35.8573 195.712 34.7346 196.294 33.8786L203.742 22.9426C204.474 21.8693 204.318 20.4239 203.376 19.5279L196.989 13.4546C196.046 12.5599 194.597 12.4773 193.56 13.2626L183.013 21.2506C182.188 21.8759 181.068 21.9733 180.161 21.4733C176.74 19.5839 173.042 18.1439 169.144 17.2279C168.138 16.9906 167.376 16.1666 167.182 15.1506L164.716 2.15727C164.474 0.881274 163.342 -0.0320552 162.044 0.00127818L153.233 0.222612C151.933 0.255945 150.849 1.22394 150.672 2.51061L148.864 15.6119C148.721 16.6359 148.002 17.4986 147.009 17.7853C143.162 18.8959 139.542 20.5213 136.218 22.5799C135.338 23.1253 134.216 23.0853 133.36 22.5013L122.425 15.0546C121.35 14.3226 119.904 14.4773 119.009 15.4199L112.934 21.8066C112.041 22.7479 111.958 24.2013 112.744 25.2359L120.732 35.7826C121.357 36.6079 121.454 37.7266 120.954 38.6333C119.065 42.0559 117.624 45.7559 116.709 49.6519C116.472 50.6586 115.648 51.4213 114.632 51.6146L101.638 54.0799C100.362 54.3213 99.449 55.4533 99.4823 56.7533L99.705 65.5639C99.737 66.8626 100.706 67.9466 101.992 68.1239L115.094 69.9319C116.117 70.0746 116.98 70.7946 117.266 71.7866C118.377 75.6333 120.002 79.2559 122.061 82.5786C122.606 83.4586 122.565 84.5813 121.984 85.4373L114.536 96.3719C113.805 97.4466 113.958 98.8919 114.9 99.7866L121.288 105.861C122.229 106.756 123.681 106.839 124.717 106.053L135.265 98.0653C136.089 97.4399 137.209 97.3413 138.114 97.8426C141.537 99.7306 145.236 101.172 149.134 102.088C150.141 102.324 150.902 103.149 151.096 104.164L153.561 117.159C153.804 118.435 154.934 119.347 156.233 119.315L165.044 119.093C166.344 119.06 167.429 118.091 167.604 116.804L169.414 103.703C169.554 102.679 170.276 101.816 171.268 101.531C175.114 100.42 178.737 98.7933 182.06 96.7346C182.94 96.1893 184.062 96.2306 184.917 96.8133L195.852 104.261C196.928 104.992 198.373 104.837 199.268 103.896L205.341 97.5079C206.237 96.5666 206.318 95.1146 205.534 94.0786L197.546 83.5319C196.922 82.7066 196.822 81.5893 197.322 80.6813C199.21 77.2586 200.654 73.5599 201.568 69.6626C201.805 68.6559 202.63 67.8946 203.646 67.7013L216.638 65.2346C217.914 64.9933 218.828 63.8626 218.794 62.5626Z" fill="#507BAA"/>
<path d="M195.774 58.7377C195.891 63.3643 195.143 67.8083 193.683 71.9283C190.036 82.179 181.94 90.363 171.67 94.099C168.039 95.4217 164.132 96.1843 160.062 96.287C139.826 96.7963 123.014 80.811 122.503 60.5843C121.994 40.3483 137.979 23.535 158.216 23.0257C178.451 22.515 195.263 38.5017 195.774 58.7377Z" fill="#4165B5"/>
<mask id="mask2_649_283" style="mask-type:luminance" maskUnits="userSpaceOnUse" x="153" y="51" width="41" height="44">
<path d="M153.606 51.6436H193.682V94.0996H153.606V51.6436Z" fill="white"/>
</mask>
<g mask="url(#mask2_649_283)">
<path d="M193.682 71.928C190.037 82.1773 181.94 90.3626 171.669 94.0986L153.605 72.6453L169.505 51.644L193.682 71.928Z" fill="#3A5EAB"/>
</g>
<path d="M153.603 72.6396L146.067 63.6623L148.386 52.1716L158.815 46.8223L169.5 51.6396L172.396 62.9996L165.322 72.345L153.603 72.6396Z" fill="#507BAA"/>
<path d="M69.3398 91.0147H84.6992V102.499H69.3398V128.202H55.1992V102.499H4.77734V94.2178L54.3555 17.4834H69.3398V91.0147ZM20.7461 91.0147H55.1992V36.7178L53.5117 39.7646L20.7461 91.0147ZM298.738 91.0147H314.098V102.499H298.738V128.202H284.598V102.499H234.176V94.2178L283.754 17.4834H298.738V91.0147ZM250.145 91.0147H284.598V36.7178L282.91 39.7646L250.145 91.0147Z" fill="#507BAA"/>
<path d="M3.71875 213.983V225.046H0V196.796H10.4219C13.5039 196.796 15.9219 197.589 17.6719 199.171C19.4297 200.745 20.3125 202.835 20.3125 205.437C20.3125 208.179 19.4531 210.288 17.7344 211.765C16.0234 213.245 13.5703 213.983 10.375 213.983H3.71875ZM3.71875 210.937H10.4219C12.4102 210.937 13.9375 210.468 15 209.53C16.0625 208.593 16.5938 207.241 16.5938 205.468C16.5938 203.792 16.0625 202.448 15 201.437C13.9375 200.429 12.4766 199.901 10.625 199.858H3.71875V210.937ZM37.9805 217.671H26.1523L23.4961 225.046H19.6523L30.4336 196.796H33.6992L44.4961 225.046H40.6836L37.9805 217.671ZM27.2773 214.608H36.8711L32.0586 201.39L27.2773 214.608ZM68.9492 221.343C67.9883 222.71 66.6523 223.733 64.9336 224.421C63.2227 225.097 61.2305 225.437 58.9492 225.437C56.6445 225.437 54.5977 224.897 52.8086 223.812C51.0273 222.729 49.6445 221.194 48.668 219.202C47.6992 217.214 47.1992 214.905 47.168 212.28V209.812C47.168 205.562 48.1602 202.265 50.1523 199.921C52.1406 197.577 54.9336 196.405 58.5273 196.405C61.4727 196.405 63.8438 197.163 65.6367 198.671C67.4375 200.183 68.543 202.319 68.9492 205.077H65.2148C64.5156 201.339 62.293 199.468 58.543 199.468C56.043 199.468 54.1445 200.351 52.8555 202.108C51.5742 203.858 50.9258 206.397 50.918 209.718V212.03C50.918 215.198 51.6406 217.718 53.0898 219.593C54.5352 221.46 56.4961 222.39 58.9648 222.39C60.3711 222.39 61.5938 222.233 62.6367 221.921C63.6875 221.608 64.5586 221.089 65.2461 220.358V213.999H58.6992V210.983H68.9492V221.343ZM91.1133 211.983H78.8633V221.999H93.082V225.046H75.1445V196.796H92.8945V199.858H78.8633V208.937H91.1133V211.983ZM129.242 225.046H125.508L111.273 203.28V225.046H107.539V196.796H111.273L125.539 218.655V196.796H129.242V225.046ZM157.602 211.827C157.602 214.601 157.133 217.015 156.195 219.077C155.266 221.14 153.949 222.718 152.242 223.812C150.531 224.897 148.539 225.437 146.258 225.437C144.039 225.437 142.07 224.89 140.352 223.796C138.633 222.702 137.293 221.147 136.336 219.124C135.387 217.093 134.902 214.749 134.883 212.093V210.046C134.883 207.327 135.352 204.933 136.289 202.858C137.234 200.776 138.57 199.183 140.289 198.077C142.016 196.964 143.996 196.405 146.227 196.405C148.484 196.405 150.48 196.952 152.211 198.046C153.938 199.14 155.266 200.729 156.195 202.812C157.133 204.886 157.602 207.296 157.602 210.046V211.827ZM153.883 210.015C153.883 206.663 153.211 204.089 151.867 202.296C150.523 200.507 148.641 199.608 146.227 199.608C143.871 199.608 142.016 200.507 140.664 202.296C139.309 204.089 138.617 206.577 138.586 209.765V211.827C138.586 215.077 139.266 217.632 140.633 219.483C141.996 221.339 143.871 222.265 146.258 222.265C148.664 222.265 150.527 221.39 151.852 219.64C153.172 217.89 153.852 215.382 153.883 212.108V210.015ZM182.172 199.858H173.094V225.046H169.391V199.858H160.328V196.796H182.172V199.858ZM210.996 212.577H199.137V225.046H195.418V196.796H212.918V199.858H199.137V209.53H210.996V212.577ZM239.121 211.827C239.121 214.601 238.652 217.015 237.715 219.077C236.785 221.14 235.469 222.718 233.762 223.812C232.051 224.897 230.059 225.437 227.777 225.437C225.559 225.437 223.59 224.89 221.871 223.796C220.152 222.702 218.813 221.147 217.855 219.124C216.906 217.093 216.422 214.749 216.402 212.093V210.046C216.402 207.327 216.871 204.933 217.809 202.858C218.754 200.776 220.09 199.183 221.809 198.077C223.535 196.964 225.516 196.405 227.746 196.405C230.004 196.405 232 196.952 233.73 198.046C235.457 199.14 236.785 200.729 237.715 202.812C238.652 204.886 239.121 207.296 239.121 210.046V211.827ZM235.402 210.015C235.402 206.663 234.73 204.089 233.387 202.296C232.043 200.507 230.16 199.608 227.746 199.608C225.391 199.608 223.535 200.507 222.184 202.296C220.828 204.089 220.137 206.577 220.105 209.765V211.827C220.105 215.077 220.785 217.632 222.152 219.483C223.516 221.339 225.391 222.265 227.777 222.265C230.184 222.265 232.047 221.39 233.371 219.64C234.691 217.89 235.371 215.382 235.402 212.108V210.015ZM264.59 196.796V215.999C264.566 218.667 263.723 220.851 262.059 222.546C260.402 224.233 258.152 225.179 255.309 225.39L254.324 225.437C251.23 225.437 248.762 224.604 246.918 222.937C245.082 221.261 244.156 218.964 244.137 216.046V196.796H247.824V215.921C247.824 217.976 248.387 219.569 249.512 220.702C250.637 221.827 252.238 222.39 254.324 222.39C256.426 222.39 258.035 221.827 259.152 220.702C260.277 219.577 260.84 217.995 260.84 215.952V196.796H264.59ZM292.145 225.046H288.41L274.176 203.28V225.046H270.441V196.796H274.176L288.441 218.655V196.796H292.145V225.046ZM298.77 225.046V196.796H306.738C309.195 196.796 311.367 197.343 313.254 198.437C315.148 199.522 316.605 201.069 317.629 203.077C318.66 205.077 319.18 207.374 319.191 209.968V211.78C319.191 214.437 318.676 216.772 317.645 218.78C316.621 220.78 315.16 222.323 313.254 223.405C311.348 224.479 309.121 225.026 306.582 225.046H298.77ZM302.488 199.858V221.999H306.41C309.285 221.999 311.52 221.108 313.113 219.327C314.707 217.538 315.504 214.995 315.504 211.702V210.046C315.504 206.839 314.746 204.351 313.238 202.577C311.738 200.796 309.602 199.89 306.832 199.858H302.488Z" fill="#FFA949"/>
</svg>
