<?xml version="1.0" encoding="UTF-8"?>
<svg id="Layer_2" data-name="Layer 2" xmlns="http://www.w3.org/2000/svg" viewBox="0 0 135 135">
  <defs>
    <style>
      .cls-1 {
        fill: #fff;
      }

      .cls-2 {
        fill: #5a99ec;
      }
    </style>
  </defs>
  <g id="Graphic_Elements" data-name="Graphic Elements">
    <g>
      <circle class="cls-2" cx="67.5" cy="67.5" r="67.5"/>
      <path class="cls-1" d="m53.86,106.38c32.97,0,51-27.31,51-51,0-.78-.02-1.55-.05-2.32,3.5-2.53,6.54-5.69,8.94-9.28-3.21,1.43-6.67,2.39-10.29,2.82,3.7-2.22,6.54-5.73,7.88-9.91-3.46,2.05-7.3,3.55-11.38,4.35-3.27-3.48-7.93-5.66-13.08-5.66-9.9,0-17.93,8.03-17.93,17.92,0,1.41.16,2.77.47,4.09-14.9-.75-28.11-7.88-36.94-18.73-1.54,2.65-2.43,5.73-2.43,9.01,0,6.22,3.16,11.71,7.98,14.92-2.94-.09-5.7-.9-8.12-2.24,0,.07,0,.15,0,.23,0,8.68,6.18,15.93,14.38,17.57-1.51.41-3.09.63-4.72.63-1.15,0-2.28-.11-3.37-.32,2.28,7.12,8.9,12.3,16.74,12.45-6.14,4.81-13.86,7.67-22.26,7.67-1.45,0-2.87-.08-4.28-.25,7.93,5.08,17.35,8.05,27.47,8.05"/>
    </g>
  </g>
</svg>