<?xml version="1.0" encoding="UTF-8"?>
<svg id="Layer_2" data-name="Layer 2" xmlns="http://www.w3.org/2000/svg" xmlns:xlink="http://www.w3.org/1999/xlink" viewBox="0 0 135 135">
  <defs>
    <style>
      .cls-1 {
        fill: #fff;
      }

      .cls-2 {
        fill: url(#linear-gradient);
      }
    </style>
    <linearGradient id="linear-gradient" x1="0" y1="67.5" x2="135" y2="67.5" gradientUnits="userSpaceOnUse">
      <stop offset="0" stop-color="#f8a01d"/>
      <stop offset=".47" stop-color="#f26e23"/>
      <stop offset="1" stop-color="#ef5826"/>
    </linearGradient>
  </defs>
  <g id="Graphic_Elements" data-name="Graphic Elements">
    <g>
      <circle class="cls-2" cx="67.5" cy="67.5" r="67.5"/>
      <path class="cls-1" d="m69.52,109.16h-4.01c0-.13-.09-.08-.15-.08-.16,0-.33.01-.49,0-.7-.08-1.41-.1-2.12-.21-.5-.08-1.01-.1-1.5-.18-.82-.14-1.64-.28-2.45-.45-1.35-.29-2.68-.64-3.99-1.06-1.13-.36-2.24-.78-3.34-1.24-.93-.38-1.84-.83-2.75-1.26-.5-.24-.97-.53-1.46-.79-.75-.4-1.47-.84-2.18-1.3-1.47-.96-2.89-1.98-4.23-3.11-.8-.67-1.57-1.37-2.33-2.09-.97-.92-1.87-1.91-2.73-2.93-.42-.5-.84-1-1.24-1.52-.77-.99-1.49-2.02-2.16-3.08-.57-.89-1.12-1.8-1.6-2.74-.66-1.28-1.29-2.57-1.83-3.9-.68-1.67-1.24-3.37-1.71-5.11-.41-1.53-.71-3.09-.94-4.66-.13-.89-.23-1.78-.3-2.68-.05-.69-.11-1.38-.09-2.07,0-.11,0-.21,0-.32,0-.05.01-.12-.08-.11v-1.49c.11.01.08-.08.08-.13,0-.68.04-1.35.08-2.03.03-.58.08-1.15.14-1.72.08-.78.19-1.55.33-2.33.16-.91.33-1.81.54-2.71.38-1.64.88-3.25,1.46-4.83.41-1.11.86-2.2,1.37-3.27.36-.75.72-1.49,1.12-2.21.49-.9,1.02-1.77,1.57-2.63.76-1.18,1.58-2.31,2.46-3.4.76-.95,1.56-1.87,2.39-2.76.46-.49.94-.96,1.44-1.42.49-.45.99-.91,1.49-1.35.57-.5,1.15-.98,1.76-1.44,1.03-.79,2.1-1.54,3.2-2.24,1.1-.69,2.23-1.32,3.37-1.93.86-.45,1.74-.84,2.63-1.22,1.52-.64,3.07-1.2,4.66-1.65,1.71-.49,3.44-.87,5.19-1.14,1.02-.16,2.04-.28,3.07-.37.69-.06,1.38-.11,2.07-.1.12,0,.24,0,.36,0,.05,0,.12.01.11-.08h1.53c0,.13.09.08.15.08.68,0,1.35.04,2.03.08.56.03,1.11.08,1.66.15.78.09,1.55.19,2.33.33.9.15,1.8.33,2.69.54,1.48.35,2.94.78,4.38,1.3,1.48.53,2.92,1.14,4.33,1.82.65.32,1.28.68,1.91,1.01.75.4,1.48.84,2.2,1.31,1.47.95,2.88,1.98,4.23,3.11.78.65,1.53,1.33,2.27,2.03.99.94,1.91,1.95,2.79,2.99.42.5.84,1,1.24,1.52.84,1.09,1.63,2.22,2.35,3.4.69,1.12,1.34,2.26,1.93,3.44.62,1.26,1.19,2.53,1.69,3.85.52,1.37.96,2.76,1.33,4.17.32,1.22.57,2.46.78,3.71.15.88.28,1.77.36,2.66.07.69.14,1.37.14,2.07,0,.05-.03.14.08.13v4.01c-.11-.01-.08.08-.08.13,0,.44-.06.87-.08,1.31-.04.69-.13,1.37-.22,2.05-.12.94-.29,1.86-.46,2.79-.31,1.64-.76,3.24-1.27,4.82-.51,1.58-1.13,3.12-1.84,4.61-.69,1.45-1.44,2.87-2.3,4.23-.59.94-1.21,1.87-1.87,2.76-.57.77-1.17,1.52-1.79,2.26-.55.66-1.13,1.3-1.72,1.92-.88.91-1.81,1.77-2.76,2.6-.64.56-1.3,1.1-1.97,1.61-.98.74-1.99,1.45-3.03,2.11-.89.56-1.8,1.09-2.73,1.58-1.48.78-2.99,1.47-4.55,2.08-1.49.57-3,1.06-4.55,1.46-1.17.3-2.35.55-3.55.74-.88.14-1.77.26-2.66.36-.68.08-1.37.14-2.07.14-.05,0-.14-.03-.13.08Zm6.74-5.15c.06,0,.11-.01.17-.03,1.28-.32,2.53-.69,3.77-1.14,1.26-.45,2.49-.97,3.69-1.55.8-.39,1.59-.81,2.36-1.26,1.34-.78,2.63-1.63,3.86-2.56,1.03-.78,2.03-1.6,2.97-2.48.8-.74,1.56-1.53,2.3-2.33.09-.09.08-.15-.03-.22-.3-.19-.61-.37-.91-.57-1.11-.72-2.27-1.37-3.44-1.98-1.01-.53-2.05-1.02-3.09-1.48-.38-.17-.76-.32-1.14-.49-.09-.04-.16-.06-.21.06-.35.89-.75,1.76-1.17,2.63-.52,1.09-1.09,2.17-1.69,3.22-.61,1.07-1.25,2.11-1.93,3.13-.7,1.06-1.44,2.08-2.22,3.08-.58.75-1.18,1.48-1.79,2.2-.5.59-1.03,1.16-1.55,1.73-.01.02-.06.03-.03.06.02.02.05,0,.06-.03Zm-17.48,0s.04.05.06.03c.03-.03-.02-.04-.03-.06-.11-.13-.22-.26-.33-.38-.32-.35-.66-.7-.97-1.06-.59-.7-1.19-1.41-1.75-2.13-.64-.81-1.25-1.64-1.84-2.48-.55-.77-1.05-1.57-1.56-2.37-.68-1.07-1.3-2.18-1.89-3.3-.38-.73-.74-1.47-1.09-2.21-.32-.67-.61-1.35-.9-2.04-.06-.14-.11-.14-.22-.09-.91.37-1.81.78-2.7,1.21-1.36.65-2.69,1.37-3.98,2.14-.63.38-1.25.78-1.87,1.17-.11.07-.16.12-.03.24.19.18.35.38.54.57.99,1,1.97,2.01,3.07,2.9.54.44,1.08.9,1.64,1.32.83.62,1.68,1.21,2.56,1.76.92.58,1.86,1.12,2.82,1.63.62.32,1.25.61,1.88.9.8.36,1.61.69,2.43,1,.94.35,1.9.66,2.87.92.44.12.87.26,1.32.33Zm39-38.53c2.31,0,4.62,0,6.92,0,.31,0,.3.04.27-.29-.05-.57-.09-1.15-.16-1.72-.08-.65-.16-1.29-.26-1.94-.15-1.05-.38-2.08-.63-3.1-.31-1.24-.68-2.46-1.12-3.67-.41-1.13-.87-2.24-1.38-3.33-.37-.79-.79-1.56-1.22-2.33-.62-1.12-1.33-2.19-2.05-3.25-.07-.1-.12-.1-.22-.04-.5.34-1.01.66-1.52.97-1.61,1-3.27,1.92-4.99,2.75-1.11.54-2.23,1.05-3.38,1.49-.1.04-.13.09-.08.21.13.37.23.75.36,1.12.28.84.5,1.7.72,2.56.25,1,.47,2.01.66,3.03.15.8.29,1.61.4,2.42.09.64.17,1.28.23,1.92.06.69.13,1.39.17,2.08.02.27.03.55.04.82,0,.19.06.29.3.29,2.32-.01,4.63,0,6.95,0Zm-60.53,0c2.3,0,4.6,0,6.9,0,.32,0,.34,0,.35-.31.02-.84.09-1.67.17-2.51.06-.57.1-1.15.18-1.72.12-.88.27-1.76.42-2.63.18-1.06.41-2.11.67-3.16.32-1.31.68-2.61,1.12-3.88.04-.11.06-.19-.09-.24-1.22-.46-2.4-1.01-3.57-1.58-.9-.43-1.78-.92-2.66-1.41-1.17-.65-2.31-1.34-3.43-2.08-.32-.21-.32-.21-.57.1-.02.03-.05.05-.07.08-.93,1.36-1.78,2.76-2.54,4.23-.63,1.22-1.18,2.48-1.68,3.76-.51,1.34-.94,2.7-1.3,4.09-.21.8-.39,1.61-.54,2.43-.1.58-.21,1.16-.27,1.74-.04.37-.08.74-.13,1.11-.08.57-.1,1.15-.16,1.72-.02.2.04.26.25.26,2.32,0,4.63,0,6.95,0Zm0,4.09c-2.31,0-4.62,0-6.93,0-.32,0-.3-.04-.27.29.03.43.07.87.11,1.3.07.79.19,1.57.3,2.36.15,1.05.38,2.08.63,3.1.31,1.24.68,2.46,1.12,3.67.41,1.13.87,2.24,1.38,3.33.37.79.79,1.56,1.22,2.33.63,1.12,1.32,2.19,2.05,3.25.07.1.12.1.22.04.81-.55,1.65-1.06,2.49-1.56,1-.6,2.02-1.15,3.05-1.69.7-.36,1.41-.69,2.12-1.02.65-.31,1.31-.59,1.99-.85.16-.06.28-.12.17-.33-.05-.1-.07-.21-.1-.32-.24-.74-.46-1.5-.65-2.25-.34-1.3-.62-2.61-.87-3.93-.19-1.05-.35-2.1-.49-3.15-.09-.68-.16-1.37-.21-2.05-.06-.76-.1-1.52-.13-2.28,0-.19-.06-.23-.24-.23-2.32,0-4.65,0-6.97,0Zm60.52,0c-1.43,0-2.86,0-4.28,0-.91,0-1.82,0-2.73,0-.14,0-.21.03-.19.19.02.18-.03.35-.03.53-.02.67-.08,1.34-.13,2-.06.67-.13,1.34-.21,2.01-.09.8-.22,1.6-.35,2.39-.18,1.08-.4,2.16-.65,3.22-.31,1.3-.66,2.6-1.09,3.87-.06.19-.01.26.15.32.67.24,1.31.53,1.95.83.88.41,1.77.81,2.63,1.29.56.31,1.14.6,1.7.92,1.15.66,2.28,1.34,3.38,2.08.11.07.17.09.25-.04.08-.14.19-.26.28-.39.9-1.32,1.71-2.68,2.45-4.09.31-.59.59-1.19.86-1.8.32-.72.63-1.45.9-2.19.36-.97.69-1.95.97-2.95.29-1.04.54-2.08.75-3.14.1-.53.19-1.06.26-1.59.07-.49.13-.99.19-1.48.07-.57.11-1.13.15-1.7.03-.31.03-.27-.27-.27-2.31,0-4.62,0-6.93,0Zm-40.77,0c-2.65,0-5.3,0-7.95,0-.16,0-.37-.07-.47.03-.12.11-.02.3,0,.46,0,.01,0,.03,0,.04,0,.45.04.9.08,1.35.05.6.11,1.19.17,1.78.08.73.19,1.46.3,2.18.17,1.11.39,2.21.65,3.31.29,1.24.62,2.48,1.01,3.69.05.14.09.17.23.12.34-.12.68-.22,1.02-.32,1.21-.34,2.42-.66,3.65-.93.64-.14,1.28-.27,1.93-.39.65-.11,1.31-.24,1.97-.31.6-.07,1.2-.18,1.81-.24.5-.05,1.01-.09,1.51-.14.76-.08,1.53-.1,2.3-.15.22-.02.26-.07.26-.28,0-3.31,0-6.62,0-9.93,0-.33.04-.29-.28-.29-2.73,0-5.45,0-8.18,0Zm21.03,0c-2.73,0-5.47,0-8.2,0-.31,0-.28-.03-.28.27,0,3.32,0,6.63,0,9.95,0,.05,0,.1,0,.15,0,.08.02.11.11.12.48.03.96.05,1.43.08.44.03.89.05,1.33.09.59.06,1.17.14,1.75.21.71.08,1.42.18,2.12.29,1.22.18,2.42.43,3.62.7,1.37.32,2.73.69,4.08,1.12.14.04.18.02.23-.12.41-1.27.76-2.56,1.05-3.86.19-.82.35-1.65.51-2.48.1-.56.19-1.12.26-1.68.06-.53.13-1.06.19-1.59.06-.54.1-1.08.16-1.61.05-.45.03-.9.09-1.35.04-.28.02-.29-.25-.29-2.73,0-5.45,0-8.18,0Zm-21.02-4.09c2.73,0,5.45,0,8.18,0,.22,0,.27-.05.27-.27,0-3.3,0-6.59,0-9.89,0-.31,0-.31-.32-.34-.07,0-.14-.04-.21-.04-.76,0-1.51-.09-2.26-.13-.32-.02-.64-.05-.97-.09-.53-.06-1.06-.14-1.58-.21-.53-.07-1.07-.14-1.6-.23-.72-.12-1.44-.26-2.16-.41-.93-.19-1.85-.41-2.77-.65-.84-.22-1.68-.46-2.52-.72-.09-.03-.13-.02-.16.09-.14.49-.32.97-.46,1.46-.35,1.22-.66,2.45-.92,3.7-.23,1.09-.42,2.18-.57,3.28-.09.65-.17,1.31-.23,1.96-.06.74-.14,1.47-.17,2.21,0,.21.05.26.26.26,2.73,0,5.45,0,8.18,0Zm20.96,0c2.74,0,5.48,0,8.22,0,.17,0,.23-.04.23-.22-.01-.43-.05-.86-.08-1.29-.05-.71-.13-1.41-.21-2.12-.09-.75-.19-1.5-.31-2.25-.18-1.09-.41-2.17-.67-3.24-.3-1.23-.65-2.46-1.03-3.67-.05-.15-.08-.24-.28-.15-.28.11-.57.19-.86.27-1.34.37-2.68.73-4.04,1.02-.7.15-1.41.29-2.12.4-.56.09-1.12.19-1.68.26-.51.06-1.03.15-1.54.2-.5.05-1.01.09-1.51.14-.76.08-1.53.1-2.3.15-.21.02-.25.07-.25.26,0,3.32,0,6.65,0,9.97,0,.23.07.26.27.26,2.72,0,5.44,0,8.16,0Zm-12.55,39.12c.05-.09.03-.18.03-.26,0-6.64,0-13.28,0-19.92,0-.06,0-.13,0-.19,0-.06-.04-.1-.09-.08-.27.08-.55.02-.82.04-.64.06-1.29.11-1.93.17-.45.04-.91.07-1.36.13-.63.08-1.26.2-1.89.29-.82.12-1.62.29-2.43.45-.92.19-1.84.42-2.75.66-.6.16-1.19.34-1.79.52-.05.02-.16,0-.1.14.47,1.05.93,2.1,1.46,3.12.63,1.24,1.31,2.45,2.03,3.63.73,1.19,1.51,2.34,2.34,3.46.69.93,1.41,1.83,2.17,2.71.65.75,1.33,1.48,2.01,2.2.51.54,1.04,1.06,1.6,1.56.37.34.73.69,1.11,1.01.14.11.25.26.42.35Zm17.32-18.14c-.57-.17-1.13-.36-1.7-.5-.94-.25-1.88-.49-2.83-.7-1.13-.24-2.28-.45-3.43-.62-.75-.11-1.5-.2-2.25-.28-.63-.06-1.26-.11-1.89-.14-.28-.01-.56-.02-.85-.04-.26-.02-.26-.03-.26.24,0,6.63,0,13.27,0,19.9v.24s.04.01.06.02c5.78-5.02,10.15-11.06,13.14-18.13Zm-17.29-55.65c-.57.5-1.1.95-1.6,1.44-.77.76-1.54,1.5-2.27,2.3-.5.54-.98,1.09-1.47,1.64-.54.61-1.05,1.25-1.54,1.9-.94,1.24-1.84,2.51-2.65,3.83-.7,1.13-1.36,2.29-1.98,3.47-.54,1.02-1.01,2.07-1.48,3.12-.05.11-.03.16.08.19,1.09.32,2.19.64,3.3.89.89.2,1.79.38,2.69.56.51.1,1.02.19,1.53.26.61.08,1.22.17,1.84.23.8.08,1.61.15,2.41.21.34.03.68-.02,1.01.07.08.02.14,0,.14-.1,0-.06,0-.11,0-.17,0-6.51,0-13.01,0-19.52v-.29Zm4.09,0v.3c0,6.5,0,13.01,0,19.51,0,.06,0,.11,0,.17,0,.1.04.12.13.11.59-.04,1.18-.08,1.77-.12.39-.03.77-.05,1.16-.09.65-.07,1.31-.16,1.96-.25.58-.08,1.16-.16,1.74-.27.74-.14,1.48-.29,2.22-.45,1.32-.29,2.62-.64,3.91-1.03.12-.04.16-.08.1-.21-.29-.62-.55-1.24-.85-1.85-.35-.73-.73-1.45-1.12-2.17-.45-.83-.93-1.65-1.42-2.45-.64-1.05-1.34-2.07-2.07-3.06-.71-.96-1.44-1.9-2.22-2.8-.61-.7-1.22-1.4-1.87-2.07-.7-.72-1.4-1.45-2.15-2.12-.41-.37-.82-.73-1.27-1.14Zm-10.23.11c-.07,0-.1,0-.13,0-.63.16-1.27.32-1.9.5-1.57.44-3.1.98-4.6,1.63-.95.41-1.89.86-2.8,1.35-.9.48-1.78,1-2.64,1.55-1.14.74-2.25,1.52-3.3,2.39-.75.62-1.5,1.24-2.19,1.91-.7.68-1.39,1.36-2.04,2.08-.17.18-.17.18.05.32.09.06.18.11.26.17,1.1.72,2.22,1.38,3.37,2.01.83.45,1.67.87,2.52,1.27.82.38,1.65.74,2.48,1.1.15.06.19,0,.23-.1.26-.6.51-1.2.79-1.79.4-.84.8-1.67,1.24-2.49.17-.31.34-.63.52-.94.48-.82.96-1.64,1.47-2.45.68-1.08,1.4-2.13,2.16-3.15.65-.87,1.33-1.72,2.03-2.55.67-.8,1.36-1.58,2.08-2.33.14-.14.27-.3.42-.48Zm16.35-.03c.13.16.21.28.31.37.52.52,1.01,1.06,1.49,1.62.43.51.88,1,1.3,1.52.68.85,1.35,1.72,1.98,2.61.9,1.27,1.75,2.57,2.54,3.91.36.6.71,1.21,1.04,1.82.3.54.58,1.09.84,1.65.43.9.86,1.81,1.25,2.73.04.09.07.11.17.07.99-.4,1.97-.84,2.94-1.3,1.54-.74,3.04-1.56,4.5-2.46.45-.27.88-.57,1.33-.84.11-.07.11-.11.02-.2-.2-.19-.37-.41-.57-.6-.99-.99-1.96-2-3.05-2.89-.55-.45-1.09-.91-1.65-1.33-.82-.63-1.68-1.21-2.56-1.76-.89-.56-1.8-1.09-2.72-1.58-.63-.33-1.28-.63-1.93-.93-.95-.43-1.92-.82-2.9-1.17-.96-.34-1.94-.63-2.92-.91-.44-.12-.89-.22-1.4-.34Z"/>
    </g>
  </g>
</svg>